<svg xmlns="http://www.w3.org/2000/svg" xmlns:xlink="http://www.w3.org/1999/xlink" width="1920" zoomAndPan="magnify" viewBox="0 0 1440 809.999993" height="1080" preserveAspectRatio="xMidYMid meet" version="1.0"><defs><g/><clipPath id="b9703f701b"><path d="M 134 347 L 221 347 L 221 638.257812 L 134 638.257812 Z M 134 347 " clip-rule="nonzero"/></clipPath><clipPath id="ab2a3531ab"><path d="M 147 171.757812 L 310 171.757812 L 310 279 L 147 279 Z M 147 171.757812 " clip-rule="nonzero"/></clipPath></defs><path fill="#1ebb3a" d="M 258.753906 389.875 C 221.660156 317.503906 127.238281 366.164062 76.445312 376.660156 C 41.433594 383.898438 0.769531 355.398438 4.53125 315.390625 C 10.664062 250.179688 108.261719 252.21875 151.472656 279.382812 C 194.296875 303.039062 242.597656 343.515625 258.753906 389.875 Z M 258.753906 389.875 " fill-opacity="1" fill-rule="nonzero"/><g clip-path="url(#b9703f701b)"><path fill="#173e1e" d="M 177.808594 347.773438 C 179.222656 347.773438 180.632812 347.84375 182.042969 347.984375 C 183.449219 348.121094 184.847656 348.328125 186.234375 348.605469 C 187.621094 348.878906 188.988281 349.222656 190.34375 349.636719 C 191.695312 350.046875 193.027344 350.519531 194.332031 351.0625 C 195.640625 351.605469 196.917969 352.207031 198.164062 352.875 C 199.410156 353.542969 200.621094 354.269531 201.796875 355.054688 C 202.972656 355.839844 204.109375 356.683594 205.203125 357.578125 C 206.296875 358.476562 207.34375 359.425781 208.34375 360.425781 C 209.34375 361.425781 210.289062 362.472656 211.1875 363.566406 C 212.085938 364.660156 212.925781 365.796875 213.710938 366.972656 C 214.496094 368.148438 215.222656 369.359375 215.890625 370.609375 C 216.558594 371.855469 217.160156 373.132812 217.703125 374.441406 C 218.242188 375.746094 218.71875 377.078125 219.128906 378.429688 C 219.539062 379.785156 219.882812 381.15625 220.160156 382.542969 C 220.433594 383.929688 220.640625 385.328125 220.78125 386.734375 C 220.917969 388.144531 220.988281 389.554688 220.988281 390.96875 L 220.988281 595.0625 C 220.988281 596.476562 220.917969 597.890625 220.78125 599.296875 C 220.640625 600.703125 220.433594 602.101562 220.160156 603.488281 C 219.882812 604.878906 219.539062 606.246094 219.128906 607.601562 C 218.71875 608.957031 218.242188 610.285156 217.703125 611.59375 C 217.160156 612.898438 216.558594 614.175781 215.890625 615.425781 C 215.222656 616.671875 214.496094 617.882812 213.710938 619.0625 C 212.925781 620.238281 212.085938 621.371094 211.1875 622.464844 C 210.289062 623.558594 209.34375 624.605469 208.34375 625.605469 C 207.34375 626.605469 206.296875 627.554688 205.203125 628.453125 C 204.109375 629.351562 202.972656 630.191406 201.796875 630.976562 C 200.621094 631.765625 199.410156 632.488281 198.164062 633.15625 C 196.917969 633.824219 195.640625 634.429688 194.332031 634.96875 C 193.027344 635.511719 191.695312 635.988281 190.34375 636.398438 C 188.988281 636.808594 187.621094 637.152344 186.234375 637.425781 C 184.847656 637.703125 183.449219 637.910156 182.042969 638.050781 C 180.632812 638.1875 179.222656 638.257812 177.808594 638.257812 C 176.394531 638.257812 174.984375 638.1875 173.578125 638.050781 C 172.167969 637.910156 170.773438 637.703125 169.382812 637.425781 C 167.996094 637.152344 166.628906 636.808594 165.273438 636.398438 C 163.921875 635.988281 162.589844 635.511719 161.285156 634.96875 C 159.976562 634.429688 158.699219 633.824219 157.453125 633.15625 C 156.207031 632.488281 154.996094 631.765625 153.820312 630.976562 C 152.644531 630.191406 151.507812 629.351562 150.414062 628.453125 C 149.320312 627.554688 148.277344 626.605469 147.277344 625.605469 C 146.277344 624.605469 145.328125 623.558594 144.429688 622.464844 C 143.53125 621.371094 142.691406 620.238281 141.90625 619.0625 C 141.121094 617.882812 140.394531 616.671875 139.726562 615.425781 C 139.058594 614.175781 138.457031 612.898438 137.914062 611.59375 C 137.375 610.285156 136.898438 608.957031 136.488281 607.601562 C 136.078125 606.246094 135.734375 604.878906 135.457031 603.488281 C 135.183594 602.101562 134.976562 600.703125 134.835938 599.296875 C 134.699219 597.890625 134.628906 596.476562 134.628906 595.0625 L 134.628906 390.96875 C 134.628906 389.554688 134.699219 388.144531 134.835938 386.734375 C 134.976562 385.328125 135.183594 383.929688 135.457031 382.542969 C 135.734375 381.15625 136.078125 379.785156 136.488281 378.429688 C 136.898438 377.078125 137.375 375.746094 137.914062 374.441406 C 138.457031 373.132812 139.058594 371.855469 139.726562 370.609375 C 140.394531 369.359375 141.121094 368.148438 141.90625 366.972656 C 142.691406 365.796875 143.53125 364.660156 144.429688 363.566406 C 145.328125 362.472656 146.277344 361.425781 147.277344 360.425781 C 148.277344 359.425781 149.320312 358.476562 150.414062 357.578125 C 151.507812 356.683594 152.644531 355.839844 153.820312 355.054688 C 154.996094 354.269531 156.207031 353.542969 157.453125 352.875 C 158.699219 352.207031 159.976562 351.605469 161.285156 351.0625 C 162.589844 350.519531 163.921875 350.046875 165.273438 349.636719 C 166.628906 349.222656 167.996094 348.878906 169.382812 348.605469 C 170.773438 348.328125 172.167969 348.121094 173.578125 347.984375 C 174.984375 347.84375 176.394531 347.773438 177.808594 347.773438 Z M 177.808594 347.773438 " fill-opacity="1" fill-rule="nonzero"/></g><path fill="#197229" d="M 135.371094 448.992188 C 180.117188 373.011719 260.390625 377.472656 311.667969 409.328125 C 342.804688 428.671875 390.410156 399.847656 386.152344 360.734375 C 375.566406 263.464844 219.21875 313.472656 168.296875 343.703125 C 124.378906 366.546875 128.894531 400.421875 135.265625 448.195312 Z M 135.371094 448.992188 " fill-opacity="1" fill-rule="nonzero"/><g clip-path="url(#ab2a3531ab)"><path fill="#1ebb3a" d="M 269.875 262.191406 C 260.859375 268.722656 246.371094 274.027344 240.414062 275.269531 C 207.464844 284.085938 176.191406 275.707031 147.582031 260.195312 C 198.542969 278.667969 215.769531 219.875 238.1875 190.015625 C 253.644531 169.429688 287.539062 164.09375 302.832031 186.050781 C 322.929688 214.902344 292.144531 246.054688 269.875 262.191406 Z M 269.875 262.191406 " fill-opacity="1" fill-rule="nonzero"/></g><g fill="#009345" fill-opacity="1"><g transform="translate(425.560473, 468.051191)"><g><path d="M 15.0625 -125.65625 L 110.25 -125.65625 C 113.894531 -125.65625 116.570312 -125.222656 118.28125 -124.359375 C 120 -123.503906 121.140625 -122.164062 121.703125 -120.34375 C 122.273438 -118.519531 122.5625 -116.125 122.5625 -113.15625 C 122.5625 -110.1875 122.273438 -107.816406 121.703125 -106.046875 C 121.140625 -104.273438 120.171875 -103.050781 118.796875 -102.375 C 116.742188 -101.34375 113.835938 -100.828125 110.078125 -100.828125 L 77.375 -100.828125 L 77.375 -14.71875 C 77.375 -12.09375 77.285156 -10.148438 77.109375 -8.890625 C 76.941406 -7.640625 76.429688 -6.1875 75.578125 -4.53125 C 74.722656 -2.875 73.210938 -1.703125 71.046875 -1.015625 C 68.878906 -0.335938 66.023438 0 62.484375 0 C 58.941406 0 56.113281 -0.335938 54 -1.015625 C 51.894531 -1.703125 50.414062 -2.875 49.5625 -4.53125 C 48.707031 -6.1875 48.191406 -7.671875 48.015625 -8.984375 C 47.847656 -10.296875 47.765625 -12.265625 47.765625 -14.890625 L 47.765625 -100.828125 L 14.890625 -100.828125 C 11.242188 -100.828125 8.5625 -101.253906 6.84375 -102.109375 C 5.132812 -102.960938 3.992188 -104.300781 3.421875 -106.125 C 2.847656 -107.957031 2.5625 -110.359375 2.5625 -113.328125 C 2.5625 -116.296875 2.847656 -118.660156 3.421875 -120.421875 C 3.992188 -122.191406 4.960938 -123.421875 6.328125 -124.109375 C 8.390625 -125.140625 11.300781 -125.65625 15.0625 -125.65625 Z M 15.0625 -125.65625 "/></g></g></g><g fill="#009345" fill-opacity="1"><g transform="translate(550.688998, 468.051191)"><g><path d="M 65.734375 -127.015625 C 82.628906 -127.015625 97.296875 -120.910156 109.734375 -108.703125 C 122.171875 -96.492188 128.390625 -81.34375 128.390625 -63.25 C 128.390625 -45.164062 122.453125 -29.757812 110.578125 -17.03125 C 98.710938 -4.3125 84.109375 2.046875 66.765625 2.046875 C 49.421875 2.046875 34.671875 -4.226562 22.515625 -16.78125 C 10.359375 -29.332031 4.28125 -44.28125 4.28125 -61.625 C 4.28125 -71.101562 5.988281 -79.976562 9.40625 -88.25 C 12.832031 -96.519531 17.398438 -103.453125 23.109375 -109.046875 C 28.816406 -114.640625 35.378906 -119.03125 42.796875 -122.21875 C 50.210938 -125.414062 57.859375 -127.015625 65.734375 -127.015625 Z M 34.578125 -62.484375 C 34.578125 -52.328125 37.859375 -44.082031 44.421875 -37.75 C 50.984375 -31.414062 58.316406 -28.25 66.421875 -28.25 C 74.523438 -28.25 81.828125 -31.328125 88.328125 -37.484375 C 94.835938 -43.648438 98.09375 -51.925781 98.09375 -62.3125 C 98.09375 -72.695312 94.8125 -81.023438 88.25 -87.296875 C 81.6875 -93.578125 74.351562 -96.71875 66.25 -96.71875 C 58.144531 -96.71875 50.835938 -93.550781 44.328125 -87.21875 C 37.828125 -80.882812 34.578125 -72.640625 34.578125 -62.484375 Z M 34.578125 -62.484375 "/></g></g></g><g fill="#009345" fill-opacity="1"><g transform="translate(683.349203, 468.051191)"><g><path d="M 60.59375 -63 C 78.0625 -46.21875 90.445312 -33.609375 97.75 -25.171875 C 101.507812 -20.941406 103.390625 -17.367188 103.390625 -14.453125 C 103.390625 -11.546875 101.109375 -8.125 96.546875 -4.1875 C 91.984375 -0.25 88.242188 1.71875 85.328125 1.71875 C 82.421875 1.71875 78.914062 -0.679688 74.8125 -5.484375 L 37.140625 -48.453125 L 37.140625 -15.0625 C 37.140625 -12.320312 37.054688 -10.320312 36.890625 -9.0625 C 36.722656 -7.8125 36.179688 -6.332031 35.265625 -4.625 C 33.671875 -1.539062 29.21875 0 21.90625 0 C 13.914062 0 9.238281 -2.164062 7.875 -6.5 C 7.1875 -8.332031 6.84375 -11.242188 6.84375 -15.234375 L 6.84375 -110.421875 C 6.84375 -113.046875 6.925781 -115.015625 7.09375 -116.328125 C 7.269531 -117.640625 7.816406 -119.148438 8.734375 -120.859375 C 10.328125 -123.941406 14.773438 -125.484375 22.078125 -125.484375 C 30.066406 -125.484375 34.804688 -123.367188 36.296875 -119.140625 C 36.859375 -117.203125 37.140625 -114.238281 37.140625 -110.25 L 37.140625 -77.546875 C 52.660156 -95.003906 65.21875 -109.328125 74.8125 -120.515625 C 78.800781 -125.191406 82.28125 -127.53125 85.25 -127.53125 C 88.21875 -127.53125 91.984375 -125.5625 96.546875 -121.625 C 101.109375 -117.6875 103.390625 -114.257812 103.390625 -111.34375 C 103.390625 -108.4375 101.679688 -104.988281 98.265625 -101 C 91.640625 -93.351562 81.367188 -82.851562 67.453125 -69.5 Z M 60.59375 -63 "/></g></g></g><g fill="#009345" fill-opacity="1"><g transform="translate(792.729695, 468.051191)"><g><path d="M 65.734375 -127.015625 C 82.628906 -127.015625 97.296875 -120.910156 109.734375 -108.703125 C 122.171875 -96.492188 128.390625 -81.34375 128.390625 -63.25 C 128.390625 -45.164062 122.453125 -29.757812 110.578125 -17.03125 C 98.710938 -4.3125 84.109375 2.046875 66.765625 2.046875 C 49.421875 2.046875 34.671875 -4.226562 22.515625 -16.78125 C 10.359375 -29.332031 4.28125 -44.28125 4.28125 -61.625 C 4.28125 -71.101562 5.988281 -79.976562 9.40625 -88.25 C 12.832031 -96.519531 17.398438 -103.453125 23.109375 -109.046875 C 28.816406 -114.640625 35.378906 -119.03125 42.796875 -122.21875 C 50.210938 -125.414062 57.859375 -127.015625 65.734375 -127.015625 Z M 34.578125 -62.484375 C 34.578125 -52.328125 37.859375 -44.082031 44.421875 -37.75 C 50.984375 -31.414062 58.316406 -28.25 66.421875 -28.25 C 74.523438 -28.25 81.828125 -31.328125 88.328125 -37.484375 C 94.835938 -43.648438 98.09375 -51.925781 98.09375 -62.3125 C 98.09375 -72.695312 94.8125 -81.023438 88.25 -87.296875 C 81.6875 -93.578125 74.351562 -96.71875 66.25 -96.71875 C 58.144531 -96.71875 50.835938 -93.550781 44.328125 -87.21875 C 37.828125 -80.882812 34.578125 -72.640625 34.578125 -62.484375 Z M 34.578125 -62.484375 "/></g></g></g><g fill="#009345" fill-opacity="1"><g transform="translate(925.3899, 468.051191)"><g><path d="M 87.90625 -120.25 C 88.988281 -122.25 90.613281 -123.59375 92.78125 -124.28125 C 94.945312 -124.96875 97.65625 -125.3125 100.90625 -125.3125 C 104.164062 -125.3125 106.789062 -125.023438 108.78125 -124.453125 C 110.78125 -123.878906 112.265625 -123.191406 113.234375 -122.390625 C 114.210938 -121.597656 114.925781 -120.398438 115.375 -118.796875 C 116.0625 -116.972656 116.40625 -114.066406 116.40625 -110.078125 L 116.40625 -15.0625 C 116.40625 -12.320312 116.316406 -10.320312 116.140625 -9.0625 C 115.972656 -7.8125 115.4375 -6.332031 114.53125 -4.625 C 112.925781 -1.539062 108.472656 0 101.171875 0 C 96.722656 0 93.640625 -0.335938 91.921875 -1.015625 C 90.210938 -1.703125 88.785156 -2.789062 87.640625 -4.28125 C 61.960938 -38.519531 45.070312 -60.890625 36.96875 -71.390625 L 36.96875 -15.0625 C 36.96875 -12.320312 36.882812 -10.320312 36.71875 -9.0625 C 36.550781 -7.8125 36.007812 -6.332031 35.09375 -4.625 C 33.5 -1.539062 29.046875 0 21.734375 0 C 14.660156 0 10.328125 -1.539062 8.734375 -4.625 C 7.816406 -6.332031 7.269531 -7.867188 7.09375 -9.234375 C 6.925781 -10.609375 6.84375 -12.609375 6.84375 -15.234375 L 6.84375 -110.765625 C 6.84375 -115.097656 7.382812 -118.257812 8.46875 -120.25 C 9.550781 -122.25 11.175781 -123.59375 13.34375 -124.28125 C 15.519531 -124.96875 18.316406 -125.3125 21.734375 -125.3125 C 25.160156 -125.3125 27.875 -124.992188 29.875 -124.359375 C 31.875 -123.734375 33.269531 -123.023438 34.0625 -122.234375 C 34.519531 -121.890625 35.832031 -120.40625 38 -117.78125 C 62.082031 -85.019531 78.175781 -63.390625 86.28125 -52.890625 L 86.28125 -110.765625 C 86.28125 -115.097656 86.820312 -118.257812 87.90625 -120.25 Z M 87.90625 -120.25 "/></g></g></g><g fill="#009345" fill-opacity="1"><g transform="translate(1048.635527, 468.051191)"><g><path d="M 37.140625 -30.296875 L 89.875 -30.296875 C 92.5 -30.296875 94.46875 -30.207031 95.78125 -30.03125 C 97.09375 -29.863281 98.601562 -29.328125 100.3125 -28.421875 C 103.394531 -26.816406 104.9375 -22.363281 104.9375 -15.0625 C 104.9375 -7.070312 102.828125 -2.394531 98.609375 -1.03125 C 96.660156 -0.34375 93.691406 0 89.703125 0 L 21.90625 0 C 13.914062 0 9.238281 -2.164062 7.875 -6.5 C 7.1875 -8.332031 6.84375 -11.242188 6.84375 -15.234375 L 6.84375 -110.421875 C 6.84375 -116.234375 7.925781 -120.195312 10.09375 -122.3125 C 12.269531 -124.425781 16.378906 -125.484375 22.421875 -125.484375 L 89.875 -125.484375 C 92.5 -125.484375 94.46875 -125.394531 95.78125 -125.21875 C 97.09375 -125.050781 98.601562 -124.507812 100.3125 -123.59375 C 103.394531 -122 104.9375 -117.550781 104.9375 -110.25 C 104.9375 -102.257812 102.828125 -97.578125 98.609375 -96.203125 C 96.660156 -95.523438 93.691406 -95.1875 89.703125 -95.1875 L 37.140625 -95.1875 L 37.140625 -77.890625 L 71.046875 -77.890625 C 73.671875 -77.890625 75.640625 -77.800781 76.953125 -77.625 C 78.265625 -77.457031 79.773438 -76.914062 81.484375 -76 C 84.566406 -74.40625 86.109375 -69.957031 86.109375 -62.65625 C 86.109375 -54.664062 83.941406 -49.988281 79.609375 -48.625 C 77.660156 -47.9375 74.691406 -47.59375 70.703125 -47.59375 L 37.140625 -47.59375 Z M 37.140625 -30.296875 "/></g></g></g><g fill="#009345" fill-opacity="1"><g transform="translate(1157.844817, 468.051191)"><g><path d="M 60.59375 -63 C 78.0625 -46.21875 90.445312 -33.609375 97.75 -25.171875 C 101.507812 -20.941406 103.390625 -17.367188 103.390625 -14.453125 C 103.390625 -11.546875 101.109375 -8.125 96.546875 -4.1875 C 91.984375 -0.25 88.242188 1.71875 85.328125 1.71875 C 82.421875 1.71875 78.914062 -0.679688 74.8125 -5.484375 L 37.140625 -48.453125 L 37.140625 -15.0625 C 37.140625 -12.320312 37.054688 -10.320312 36.890625 -9.0625 C 36.722656 -7.8125 36.179688 -6.332031 35.265625 -4.625 C 33.671875 -1.539062 29.21875 0 21.90625 0 C 13.914062 0 9.238281 -2.164062 7.875 -6.5 C 7.1875 -8.332031 6.84375 -11.242188 6.84375 -15.234375 L 6.84375 -110.421875 C 6.84375 -113.046875 6.925781 -115.015625 7.09375 -116.328125 C 7.269531 -117.640625 7.816406 -119.148438 8.734375 -120.859375 C 10.328125 -123.941406 14.773438 -125.484375 22.078125 -125.484375 C 30.066406 -125.484375 34.804688 -123.367188 36.296875 -119.140625 C 36.859375 -117.203125 37.140625 -114.238281 37.140625 -110.25 L 37.140625 -77.546875 C 52.660156 -95.003906 65.21875 -109.328125 74.8125 -120.515625 C 78.800781 -125.191406 82.28125 -127.53125 85.25 -127.53125 C 88.21875 -127.53125 91.984375 -125.5625 96.546875 -121.625 C 101.109375 -117.6875 103.390625 -114.257812 103.390625 -111.34375 C 103.390625 -108.4375 101.679688 -104.988281 98.265625 -101 C 91.640625 -93.351562 81.367188 -82.851562 67.453125 -69.5 Z M 60.59375 -63 "/></g></g></g><g fill="#009345" fill-opacity="1"><g transform="translate(1267.225262, 468.051191)"><g><path d="M 8.734375 -17.625 C 5.765625 -21.28125 4.28125 -24.5625 4.28125 -27.46875 C 4.28125 -30.382812 6.734375 -34.238281 11.640625 -39.03125 C 14.492188 -41.769531 17.515625 -43.140625 20.703125 -43.140625 C 23.898438 -43.140625 28.351562 -40.285156 34.0625 -34.578125 C 35.664062 -32.640625 37.945312 -30.785156 40.90625 -29.015625 C 43.875 -27.242188 46.613281 -26.359375 49.125 -26.359375 C 59.738281 -26.359375 65.046875 -30.695312 65.046875 -39.375 C 65.046875 -42 63.59375 -44.195312 60.6875 -45.96875 C 57.78125 -47.738281 54.15625 -49.019531 49.8125 -49.8125 C 45.476562 -50.613281 40.800781 -51.898438 35.78125 -53.671875 C 30.757812 -55.441406 26.078125 -57.523438 21.734375 -59.921875 C 17.398438 -62.316406 13.773438 -66.109375 10.859375 -71.296875 C 7.953125 -76.492188 6.5 -82.742188 6.5 -90.046875 C 6.5 -100.085938 10.238281 -108.84375 17.71875 -116.3125 C 25.195312 -123.789062 35.382812 -127.53125 48.28125 -127.53125 C 55.125 -127.53125 61.367188 -126.644531 67.015625 -124.875 C 72.671875 -123.113281 76.582031 -121.316406 78.75 -119.484375 L 83.03125 -116.234375 C 86.5625 -112.921875 88.328125 -110.125 88.328125 -107.84375 C 88.328125 -105.5625 86.957031 -102.425781 84.21875 -98.4375 C 80.34375 -92.726562 76.347656 -89.875 72.234375 -89.875 C 69.835938 -89.875 66.875 -91.015625 63.34375 -93.296875 C 63 -93.523438 62.34375 -94.09375 61.375 -95 C 60.40625 -95.914062 59.519531 -96.660156 58.71875 -97.234375 C 56.320312 -98.710938 53.269531 -99.453125 49.5625 -99.453125 C 45.851562 -99.453125 42.769531 -98.566406 40.3125 -96.796875 C 37.863281 -95.035156 36.640625 -92.582031 36.640625 -89.4375 C 36.640625 -86.300781 38.09375 -83.765625 41 -81.828125 C 43.90625 -79.890625 47.523438 -78.578125 51.859375 -77.890625 C 56.203125 -77.203125 60.941406 -76.144531 66.078125 -74.71875 C 71.210938 -73.289062 75.945312 -71.550781 80.28125 -69.5 C 84.625 -67.445312 88.25 -63.878906 91.15625 -58.796875 C 94.0625 -53.722656 95.515625 -47.476562 95.515625 -40.0625 C 95.515625 -32.644531 94.03125 -26.109375 91.0625 -20.453125 C 88.101562 -14.804688 84.226562 -10.441406 79.4375 -7.359375 C 70.1875 -1.304688 60.3125 1.71875 49.8125 1.71875 C 44.445312 1.71875 39.367188 1.0625 34.578125 -0.25 C 29.785156 -1.5625 25.90625 -3.191406 22.9375 -5.140625 C 16.882812 -8.785156 12.660156 -12.320312 10.265625 -15.75 Z M 8.734375 -17.625 "/></g></g></g><g fill="#009345" fill-opacity="1"><g transform="translate(1367.02002, 468.051191)"><g><path d="M 6.84375 -110.421875 C 6.84375 -113.046875 6.925781 -115.015625 7.09375 -116.328125 C 7.269531 -117.640625 7.816406 -119.148438 8.734375 -120.859375 C 10.328125 -123.941406 14.773438 -125.484375 22.078125 -125.484375 C 30.066406 -125.484375 34.804688 -123.367188 36.296875 -119.140625 C 36.859375 -117.203125 37.140625 -114.238281 37.140625 -110.25 L 37.140625 -15.0625 C 37.140625 -12.320312 37.054688 -10.320312 36.890625 -9.0625 C 36.722656 -7.8125 36.179688 -6.332031 35.265625 -4.625 C 33.671875 -1.539062 29.21875 0 21.90625 0 C 13.914062 0 9.238281 -2.164062 7.875 -6.5 C 7.1875 -8.332031 6.84375 -11.242188 6.84375 -15.234375 Z M 6.84375 -110.421875 "/></g></g></g></svg>